<?xml version="1.0" encoding="utf-8"?>
<!-- Generator: Adobe Illustrator 26.3.1, SVG Export Plug-In . SVG Version: 6.00 Build 0)  -->
<svg version="1.1" id="Calque_1" xmlns="http://www.w3.org/2000/svg" xmlns:xlink="http://www.w3.org/1999/xlink" x="0px" y="0px"
	 viewBox="0 0 103.4 101" style="enable-background:new 0 0 103.4 101;" xml:space="preserve">
<style type="text/css">
	.st0{fill:#FFFFFF;}
	.st1{fill:url(#SVGID_1_);}
	.st2{fill:url(#SVGID_00000129182867146146003740000017829033514787768484_);}
	.st3{fill:url(#SVGID_00000061447104092187230530000007682469582783301773_);}
</style>
<path class="st0" d="M52.9,101h-2.4C22.7,101,0,78.3,0,50.5v0C0,22.7,22.7,0,50.5,0h2.4c27.8,0,50.5,22.7,50.5,50.5v0
	C103.4,78.3,80.7,101,52.9,101z"/>
<g>
	<linearGradient id="SVGID_1_" gradientUnits="userSpaceOnUse" x1="5.6904" y1="50.5" x2="97.7096" y2="50.5">
		<stop  offset="0" style="stop-color:#9356DC"/>
		<stop  offset="0.6425" style="stop-color:#FF79DA"/>
	</linearGradient>
	<path class="st1" d="M5.7,47.8c0.2-1.7,0.4-3.5,0.7-5.2C9,28.8,16.3,18.3,28.2,11C36,6.2,44.5,4.1,53.7,4.5
		c13,0.6,23.9,5.9,32.6,15.6c6.5,7.3,10.3,16,11.2,25.7c1.3,14.5-3.2,27.1-13.5,37.4c-7.6,7.6-16.9,11.9-27.6,13.1
		c-0.7,0.1-1.3,0.1-2,0.2c-1.8,0-3.6,0-5.4,0c-0.2-0.1-0.5-0.1-0.7-0.1c-7.2-0.5-13.9-2.6-20.1-6.3C16.3,82.7,9,72.2,6.4,58.4
		c-0.3-1.7-0.5-3.5-0.7-5.2C5.7,51.4,5.7,49.6,5.7,47.8z M51.8,7.9C28.4,7.8,9.2,26.9,9.1,50.4C9,73.8,28.1,93,51.6,93.1
		c23.4,0.1,42.6-19,42.7-42.5C94.4,27.2,75.3,8,51.8,7.9z"/>
	
		<linearGradient id="SVGID_00000036971643437127685520000005472437591353088141_" gradientUnits="userSpaceOnUse" x1="12.9029" y1="50.4887" x2="90.5444" y2="50.4887">
		<stop  offset="0" style="stop-color:#9356DC"/>
		<stop  offset="0.6425" style="stop-color:#FF79DA"/>
	</linearGradient>
	<path style="fill:url(#SVGID_00000036971643437127685520000005472437591353088141_);" d="M71.2,83.9c-0.3-4.9-0.5-9.7-0.8-14.4
		c-0.1-1.6-0.1-3.1-0.2-4.7c0-0.6,0.1-0.9,0.7-1c2.1-0.6,3.9-1.8,5.5-3.3c1.3-1.3,2-2.8,2-4.6c-0.2-5.2-0.4-10.4-0.8-15.5
		c-0.3-4.1-0.9-8.3-1.3-12.5c-0.7,0-1.2,0-1.9,0c0,8.7,0,17.3,0,26c-0.8,0-1.5,0-2.4,0c0-8.6,0-17.2,0-26c-0.9,0-1.8,0-2.7,0
		c0,8.6,0,17.3,0,26c-0.8,0-1.6,0-2.4,0c0-8.7,0-17.3,0-26c-0.9,0-1.7,0-2.6,0c0,8.6,0,17.3,0,26c-0.8,0-1.6,0-2.4,0
		c0-8.6,0-17.3,0-26c-0.9,0-1.6,0-2.5,0c-0.3,2.5-0.6,4.9-0.8,7.4c-0.5,5.7-1,11.3-1.3,17c-0.1,1.7,0,3.4,0.2,5.1
		c0.1,0.6,0.4,1.3,0.7,1.8c1.6,2.3,3.8,3.8,6.5,4.6c0.2,0.1,0.4,0.1,0.6,0.2c0,0.2,0,0.5,0,0.7c-0.4,7.3-0.7,14.6-1.1,21.9
		c0,0.3-0.4,0.7-0.6,0.8c-6.7,2.1-13.5,2.5-20.4,0.9c-0.5-0.1-0.7-0.4-0.7-0.8C42,80.2,41.7,73,41.3,65.7c-0.1-1.2-0.1-2.4-0.2-3.7
		c0.4-0.1,0.7-0.3,1.1-0.4c3.6-1,6.1-3.4,7.7-6.6c2.6-5.4,3.3-11,1.3-16.7c-1.3-3.7-3.5-6.7-6.9-8.7c-4-2.5-8.2-2.4-12,0.5
		c-4.6,3.5-7,8.1-7.2,13.9c-0.1,4.3,0.7,8.3,2.9,12c1.6,2.7,3.9,4.7,7,5.6c0.4,0.1,0.8,0.3,1.2,0.4c-0.4,7.8-0.8,15.5-1.2,23.3
		c-11.2-4.8-22.9-18.5-22.1-36.7C13.9,29,29.2,13.7,47.9,11.9c20-2,37.2,11.4,41.6,29.4C94,60.2,83.9,77,71.2,83.9z"/>
	
		<linearGradient id="SVGID_00000042010154662674520100000006557699177308505739_" gradientUnits="userSpaceOnUse" x1="27.6649" y1="48.7361" x2="35.0059" y2="48.7361">
		<stop  offset="0" style="stop-color:#9356DC"/>
		<stop  offset="0.6425" style="stop-color:#FF79DA"/>
	</linearGradient>
	<path style="fill:url(#SVGID_00000042010154662674520100000006557699177308505739_);" d="M30.9,39.5c-0.2,1.4-0.5,2.9-0.6,4.3
		c-0.5,5.2,1.2,9.7,4.3,13.8c0.2,0.3,0.3,0.6,0.4,1c-0.4,0-0.8,0-1.1-0.2c-2.6-1.5-4.2-3.7-5.3-6.4c-1.8-4.5-1-8.7,1.3-12.7
		c0.1-0.2,0.5-0.4,0.8-0.5c0.1,0.2,0.2,0.4,0.4,0.6C31.1,39.5,31,39.5,30.9,39.5z"/>
</g>
</svg>
